<mxfile host="app.diagrams.net" agent="Mozilla/5.0 (Windows NT 10.0; Win64; x64) AppleWebKit/537.36 (KHTML, like Gecko) Chrome/133.0.0.0 Safari/537.36" version="26.1.0">
  <diagram name="Page-1" id="n7__hCrfG5DC5Ku9zr1v">
    <mxGraphModel dx="388" dy="908" grid="0" gridSize="10" guides="1" tooltips="1" connect="1" arrows="1" fold="1" page="0" pageScale="1" pageWidth="850" pageHeight="1100" math="0" shadow="0">
      <root>
        <mxCell id="0" />
        <mxCell id="1" parent="0" />
        <mxCell id="Qr1JOp2wo45q5XIkynsa-15" value="" style="shape=trapezoid;perimeter=trapezoidPerimeter;whiteSpace=wrap;html=1;fixedSize=1;strokeWidth=6;fillColor=#D32F2F;" vertex="1" parent="1">
          <mxGeometry x="1431" y="226" width="491" height="105" as="geometry" />
        </mxCell>
        <mxCell id="Qr1JOp2wo45q5XIkynsa-16" value="" style="shape=trapezoid;perimeter=trapezoidPerimeter;whiteSpace=wrap;html=1;fixedSize=1;strokeWidth=6;fillColor=#FF7043;" vertex="1" parent="1">
          <mxGeometry x="1410.5" y="331" width="532" height="105" as="geometry" />
        </mxCell>
        <mxCell id="Qr1JOp2wo45q5XIkynsa-17" value="" style="shape=trapezoid;perimeter=trapezoidPerimeter;whiteSpace=wrap;html=1;fixedSize=1;strokeWidth=6;fillColor=#FFC107;" vertex="1" parent="1">
          <mxGeometry x="1389.5" y="436" width="574" height="105" as="geometry" />
        </mxCell>
        <mxCell id="Qr1JOp2wo45q5XIkynsa-18" value="" style="shape=trapezoid;perimeter=trapezoidPerimeter;whiteSpace=wrap;html=1;fixedSize=1;strokeWidth=6;fillColor=#4CAF50;" vertex="1" parent="1">
          <mxGeometry x="1368.75" y="541" width="615.5" height="105" as="geometry" />
        </mxCell>
        <mxCell id="Qr1JOp2wo45q5XIkynsa-19" value="&lt;font face=&quot;Nunito&quot; style=&quot;font-size: 29px;&quot;&gt;&lt;b&gt;EXTRA HARD&lt;/b&gt;&lt;/font&gt;" style="text;html=1;align=center;verticalAlign=middle;whiteSpace=wrap;rounded=0;" vertex="1" parent="1">
          <mxGeometry x="1571.2500000000002" y="257" width="210.5" height="43" as="geometry" />
        </mxCell>
        <mxCell id="Qr1JOp2wo45q5XIkynsa-20" value="&lt;font data-font-src=&quot;https://fonts.googleapis.com/css?family=Nunito&quot; face=&quot;Nunito&quot; style=&quot;font-size: 29px;&quot;&gt;&lt;b&gt;HARD&lt;/b&gt;&lt;/font&gt;" style="text;html=1;align=center;verticalAlign=middle;whiteSpace=wrap;rounded=0;" vertex="1" parent="1">
          <mxGeometry x="1593.2500000000002" y="359" width="160" height="43" as="geometry" />
        </mxCell>
        <mxCell id="Qr1JOp2wo45q5XIkynsa-21" value="&lt;font face=&quot;Nunito&quot; style=&quot;font-size: 29px;&quot;&gt;&lt;b&gt;MEDIUM&lt;/b&gt;&lt;/font&gt;" style="text;html=1;align=center;verticalAlign=middle;whiteSpace=wrap;rounded=0;" vertex="1" parent="1">
          <mxGeometry x="1593.2500000000002" y="470" width="160" height="43" as="geometry" />
        </mxCell>
        <mxCell id="Qr1JOp2wo45q5XIkynsa-22" value="&lt;font data-font-src=&quot;https://fonts.googleapis.com/css?family=Nunito&quot; face=&quot;Nunito&quot; style=&quot;font-size: 29px;&quot;&gt;&lt;b&gt;EASY&lt;/b&gt;&lt;/font&gt;" style="text;html=1;align=center;verticalAlign=middle;whiteSpace=wrap;rounded=0;" vertex="1" parent="1">
          <mxGeometry x="1593.2500000000002" y="572" width="160" height="43" as="geometry" />
        </mxCell>
        <mxCell id="Qr1JOp2wo45q5XIkynsa-23" value="&lt;font style=&quot;font-size: 30px; color: rgb(76, 175, 80);&quot; face=&quot;Nunito&quot; data-font-src=&quot;https://fonts.googleapis.com/css?family=Nunito&quot;&gt;&lt;b&gt;Simple SELECT Queries (1-2 Tables)&lt;/b&gt;&lt;/font&gt;" style="text;html=1;align=left;verticalAlign=middle;whiteSpace=wrap;rounded=0;strokeWidth=3;" vertex="1" parent="1">
          <mxGeometry x="2019" y="572" width="546" height="43" as="geometry" />
        </mxCell>
        <mxCell id="Qr1JOp2wo45q5XIkynsa-24" value="&lt;font style=&quot;font-size: 30px; color: rgb(255, 193, 7);&quot; face=&quot;Nunito&quot; data-font-src=&quot;https://fonts.googleapis.com/css?family=Nunito&quot;&gt;&lt;b style=&quot;&quot;&gt;Joins and basic filters&lt;/b&gt;&lt;/font&gt;" style="text;html=1;align=left;verticalAlign=middle;whiteSpace=wrap;rounded=0;strokeWidth=3;" vertex="1" parent="1">
          <mxGeometry x="2022" y="467" width="546" height="43" as="geometry" />
        </mxCell>
        <mxCell id="Qr1JOp2wo45q5XIkynsa-25" value="&lt;font style=&quot;font-size: 30px; color: rgb(255, 112, 67);&quot; face=&quot;Nunito&quot; data-font-src=&quot;https://fonts.googleapis.com/css?family=Nunito&quot;&gt;&lt;b style=&quot;&quot;&gt;Nested Queries and Aggregations&lt;/b&gt;&lt;/font&gt;" style="text;html=1;align=left;verticalAlign=middle;whiteSpace=wrap;rounded=0;strokeWidth=3;" vertex="1" parent="1">
          <mxGeometry x="2022" y="362" width="546" height="43" as="geometry" />
        </mxCell>
        <mxCell id="Qr1JOp2wo45q5XIkynsa-26" value="&lt;font style=&quot;font-size: 30px; color: rgb(211, 47, 47);&quot; face=&quot;Nunito&quot; data-font-src=&quot;https://fonts.googleapis.com/css?family=Nunito&quot;&gt;&lt;b style=&quot;&quot;&gt;Multiple joins, Subqueries, and Complex logic&lt;/b&gt;&lt;/font&gt;" style="text;html=1;align=left;verticalAlign=middle;whiteSpace=wrap;rounded=0;strokeWidth=3;" vertex="1" parent="1">
          <mxGeometry x="2022" y="257" width="637" height="43" as="geometry" />
        </mxCell>
      </root>
    </mxGraphModel>
  </diagram>
</mxfile>
